<?xml version="1.0" encoding="UTF-8"?><svg id="Layer_1" xmlns="http://www.w3.org/2000/svg" viewBox="0 0 750 750"><defs><style>.cls-1{fill:#fff;}</style></defs><path d="M401.15,0l38.17,5.32c151.34,28.55,276.83,154.09,305.37,305.5l5.31,38.18v52l-5.31,38.18c-28.54,151.4-154.03,276.95-305.37,305.5l-38.17,5.32h-51.98l-38.17-5.32C159.66,716.13,34.17,590.59,5.63,439.18L.32,401c.74-17.09-.99-35.01,0-52C10.62,172.69,172.94,10.31,349.17,0h51.98ZM349.96,17.29C110.27,31.64-49.65,290.27,45.12,512.68c106.89,250.87,439.64,299.06,610.31,83.22C849.29,350.75,656.67-1.06,349.96,17.29Z"/><path class="cls-1" d="M401.15,0h348.85v349l-5.31-38.18C716.14,159.41,590.65,33.87,439.31,5.32l-38.17-5.32Z"/><path class="cls-1" d="M349.17,750H.32v-349l5.31,38.18c28.54,151.41,154.03,276.95,305.37,305.5l38.17,5.32Z"/><path class="cls-1" d="M750,401v349h-348.85l38.17-5.32c151.34-28.55,276.83-154.1,305.37-305.5l5.31-38.18Z"/><path class="cls-1" d="M349.17,0C172.94,10.31,10.62,172.69.32,349V0h348.85Z"/><path class="cls-1" d="M349.96,17.29C656.67-1.06,849.29,350.75,655.44,595.9c-170.68,215.84-503.42,167.65-610.31-83.22C-49.65,290.27,110.27,31.64,349.96,17.29ZM371.9,62.24c-16.21,2.62-15.95,28.67.86,30.68,23.82,2.84,23.4-34.61-.86-30.68ZM389.15,167.5c1.67-10.69-1.24-25.36,0-36.5h6.99c-.54,2.19-.96,4.14-1.05,6.44-.22,6.3.38,18.8,1.05,25.07.86,8.07,9.44,6.44,14.49,2.48,8.91-6.99,6.66-22.95,9.51-32.99l11.17,21.31c8,13.98,34.62,25.53,43.83,7.16.02-2.64-6.22-4.2-8.35-5.65-9.11-6.2-17.65-15.05-23.7-24.29-1.48-2.26-6.75-11.16-6.77-13.23-.05-4.91,21.59-13.49,22.82-24.78,1.64-15.08-14.71-7.45-21.48-1.49-7.31,6.44-11.06,15.82-17.52,22.97.34-6.42,3.76-24.01.45-28.96-2.83-4.23-16.43-2.29-20.01,1.89-4.34,5.06-3.19,22.08-4.43,29.07h-7v-16.51c0-4.04-15.84-2.84-19.37-.38-4.52,3.16-2,12.07-2.62,16.88l-5.43.05c-7.69-31.56-33.29-36.24-62.04-34.04-10.03.77-24.57,2.5-24.54,15.5.03,10.1,11.67,3.18,17.02,1.49l-.95,46.54c-.12,6.01-3.94,14.77,3.03,18.89,2.89,1.7,11.81,3.32,15.39,3.6,27.75,2.18,51.34-5.72,53.63-36.91l3.88-.13c-1.03,12.91,1.4,27.89.04,40.54-.48,4.5-5.49,10.01,3.53,11.41s17.15-7.27,18.43-15.45ZM132.26,203v39c7.64.73,89.11,11.97,88.97,16.5l-40.45,2.54-48.52-1.04v37l104.97-1.5c-33.91,9.62-69.96,12.17-104.97,16.5v39l110.95-18.99c-.23,1.5-1.89,1.86-2.98,2.51-24.25,14.47-56.24,19.97-81.59,31.38-1.17.53-1.81-.47-1.39,2.08l27.29,17.86,67.66-27.83c1.57,1.47-8.33,7.26-9.47,8.02-14.48,9.65-30.15,17.58-44.48,27.48l23.48,17.18,59.46-38.68c.44,1.88-1.04,2.38-1.99,3.5-12.99,15.49-31.84,28.4-45.96,43.03-.47,1.94.54,1.23,1.24,1.73,7.01,5.02,14.36,9.64,21.42,14.61l77.27-66.87c1.67,18.28-13.73,39.49-30.97,45.01l16,6.47c1.82,1.45.8,2.52.06,4.09-2.16,4.58-18.2,22.83-22.56,27.44-2.68,2.84-7.35,8.34-11.07,8.93-9.04,1.44-21.47-3.86-23.43,10.05,4.64-1.13,10.75-4.12,14.98-.48.5,2.28-4.19,3.02-5.46,4.51-2.56,3-2.16,9.33.97,11.95,3.77-4.65,9.11-11.27,15.96-9.97,4.38.83,10.62,10.56,7.53,14.98,10.07-1.09,8.21-10.93,5-17.98l14.98,4.99c1.36-10.01-4.4-12.39-12.51-14.99-1.07-.34-1.81.74-1.47-1.49l31.62-31.44c5.91,2.32,6.78,8.86,8.85,13.92,4.6-6.89,6.39-15.98,13.49-20.99.18,1.54.96,2.94,1.05,4.52,1.15,19.84-30.7,49.91-42.99,65.01-.92,1.14-5.63,6.6-5.02,7.46l29.42,19.01,21.54-39.98c.41,16.88-6.34,32.81-7.82,49.29l24.32,16.37,24.32-16.37c-1.48-16.48-8.23-32.42-7.82-49.29l21.54,39.98,29.42-19.01c.61-.86-4.09-6.32-5.02-7.46-12.29-15.09-44.14-45.17-42.99-65.01.09-1.57.87-2.98,1.05-4.52,7.09,5.01,8.88,14.1,13.49,20.99,2.07-5.06,2.94-11.6,8.85-13.92l31.62,31.44c.34,2.23-.4,1.15-1.47,1.49-8.11,2.6-13.87,4.98-12.51,14.99l14.98-4.99c-3.21,7.06-5.07,16.9,5,17.98-3.09-4.43,3.15-14.15,7.53-14.98,6.85-1.3,12.19,5.33,15.96,9.97,3.13-2.62,3.53-8.95.97-11.95-1.27-1.49-5.96-2.24-5.46-4.51,4.23-3.64,10.34-.65,14.98.48-1.96-13.91-14.39-8.62-23.43-10.05-3.72-.59-8.39-6.09-11.07-8.93-3.04-3.21-23.49-27.65-23.51-29.54l1.01-1.99,16-6.47c-17.24-5.52-32.64-26.73-30.97-45.01l77.27,66.87c7.06-4.97,14.4-9.59,21.42-14.61.69-.5,1.71.21,1.24-1.73-14.12-14.63-32.97-27.54-45.96-43.03-.94-1.12-2.42-1.63-1.99-3.5l59.46,38.68,23.48-17.18c-14.33-9.9-30-17.83-44.48-27.48-1.14-.76-11.04-6.55-9.47-8.02l67.66,27.83,27.29-17.86c.41-2.54-.22-1.55-1.39-2.08-25.35-11.42-57.34-16.91-81.59-31.38-1.09-.65-2.75-1.01-2.98-2.51l110.95,18.99v-39c-35.01-4.33-71.06-6.88-104.97-16.5l104.97,1.5v-37c-29.7.4-59.54,1.95-88.97-1.5-.13-4.53,81.34-15.77,88.97-16.5v-39l-187.2,42.23c-10.39,3.64-19.2,13.64-23.2,23.79-1.28,3.24-2.49,13.91-6,14-2.9.07-3.09-49.55-3.52-54.5-.99-11.39-2.82-21.93-14.91-26.08-10.24-.13-21.74-3.86-31.57-4.41-21.73-1.22-22.39,19.63-19.47,35.98,4.13-.63,5.52-5.84,9.7-6.78s9.13.2,13.29-.22l-4.27,55.24-2.23,2.75c-5.3-3.82-4.78-10.32-7.01-15.97-4-10.15-12.81-20.15-23.2-23.79l-187.2-42.23ZM135.57,581.69c.81.89,4.67,2.97,5.98,3.51,3,1.25,21.1,4.13,13.12,9.71-6.44,4.5-15.03-4.49-17.7-3.81-9.35,6.71-5.15,10.02,3.74,12.95,12.58,4.14,28.63.81,26.45-15.46-1.73-12.91-25.1-11.01-23.86-16.99s14.28-1.57,17.38,1.38l5.56-8.42c-7.31-6.83-25.67-8.75-31.43.48-2.44,3.92-2.41,13.16.76,16.65ZM195.73,559c-6.33-.78-14,.57-20.49,0v46h10s-.01-13.01-.01-13.01c12.52.57,26.72-1.92,26.06-17.51-.38-8.96-7.04-14.43-15.56-15.49ZM257.2,604.99l-18.46-45.03c-1.37-1.41-9.08-1.52-10.57-.51-2.37,1.6-16.32,39.89-18.95,45.54l11.03-.45,4.59-9.41,17.46.48,3.87,8.9,11.01.48ZM286.7,559c-7.25-.9-16.06.66-23.49,0v46h11v-14c9.64-2.38,10.4,8.23,15.99,13.51l13,.48-10.03-15.54.17-1.32c13.84-7.75,9.87-27.09-6.63-29.13ZM344.17,559h-37.98v10.01s12.99,0,12.99,0v36h11v-36h13.99v-10ZM389.15,604.99l-18.48-45-10.52-.51-18.97,45.51,10.83-.16,4.82-9.67,17.44.46,3.87,8.9,11.01.47ZM444.13,585l-19.42-25.07-10.57-.93v46h11v-26l19.42,25.07,10.57.93v-46h-11v26ZM480.86,559.24c-26.48,4.22-23.74,46.83,5.76,46.83,33.27,0,33.04-53.01-5.76-46.83ZM541.59,559c-7.31-.85-16.02.63-23.49,0v46h11v-14c2.06.38,6.25-.69,7.8.21.93.54,6.92,11.72,8.4,13.58l12.79.2-10.02-16.46c14.9-7.64,10.56-27.54-6.47-29.53ZM576.07,559h-11v46h11v-46ZM595.81,559.24c-12.37,2.09-15.21,19.11-4.44,24.96,3.57,1.94,13.54,3.51,15.7,5.29,2.5,2.06.8,5.15-1.96,6.06-7.24,2.38-13.71-5.09-16.33-4.45l-5.62,7.26c8.69,9.66,34.27,11.41,35.9-4.87.7-7-.81-10.68-7.09-13.9-4.11-2.1-17.83-3.14-15.81-8.99,1.82-5.25,13.59.14,16.34,2.37l5.56-8.42c-6.2-5.2-14.38-6.66-22.24-5.32ZM292.2,624.99h-7.01v6.01h7.01v-6.01ZM302.19,624.99h-7.01v6.01h7.01v-6.01ZM505.1,646h-13.99v7.01s6,0,6,0c1.12,4.05-1.67,5.13-5.43,4.93-8.62-.46-11.89-12.04-5.1-16.95s9.94,1.63,12.81.91l4.7-5.36c-27.32-20.89-43.21,28.58-12.49,28.54,14.01-.02,14.53-7.02,13.49-19.08ZM245.21,633v31h7v-18c7.14,5.64,10.07,20.2,20.99,18v-31h-8v16l-12.2-15.78-7.79-.22ZM287.2,633h-7v23.5c0,.64,3.06,5.24,4.02,5.98,4.5,3.45,14.45,3.45,18.95,0,.96-.74,4.02-5.34,4.02-5.98v-23.5h-7v18.5c0,7.98-12.99,7.98-12.99,0v-18.5ZM333.68,633c-5.37-1.07-13.74.78-19.49,0v31h8s0-9,0-9c6.57-2.49,6.72,6.52,10,8.5,2.16,1.3,6.43.16,8.99.5,1.23-1.08-6.19-8.59-5.89-10.35.22-1.25,3.41-3.05,4.31-4.72,2.98-5.49.55-14.64-5.92-15.93ZM367.16,650c-7.4-5.9-9.51-19.76-20.99-17v31h8v-17c4.17,2.67,9.65,14.45,13,16.5,2.01,1.23,5.64.23,7.99.5v-31h-8v17ZM401.65,633c-5.48-1.17-14.55.86-20.49,0v31h21.49c5.95,0,9.34-14.16,1.52-16.5,5.12-3.59,3.23-13.28-2.51-14.5ZM438.13,633h-23.99v31h23.99v-7h-16.99v-5h14.99v-7h-14.99v-5h16.99v-7ZM463.62,633c-5.57-.99-13.6.73-19.49,0v31h7s0-9,0-9c10.05-.8,7.16,12.77,19.99,9l-5.87-9.68c-.27-1.72,3.68-3.84,4.43-6.26,1.68-5.43.43-13.9-6.05-15.05Z"/><path d="M132.26,203l187.2,42.23c10.39,3.64,19.2,13.64,23.2,23.79,2.23,5.65,1.71,12.15,7.01,15.97l2.23-2.75,4.27-55.24c-4.16.42-9.3-.69-13.29.22s-5.57,6.16-9.7,6.78c-2.91-16.35-2.26-37.2,19.47-35.98,9.83.55,21.34,4.28,31.57,4.41,12.09,4.15,13.92,14.7,14.91,26.08.43,4.94.62,54.57,3.52,54.5,3.51-.09,4.72-10.76,6-14,4.01-10.15,12.81-20.15,23.2-23.79l187.2-42.23v39c-7.64.73-89.11,11.97-88.97,16.5,29.43,3.45,59.27,1.9,88.97,1.5v37l-104.97-1.5c33.91,9.62,69.96,12.17,104.97,16.5v39l-110.95-18.99c.23,1.5,1.89,1.86,2.98,2.51,24.25,14.47,56.24,19.97,81.59,31.38,1.17.53,1.81-.47,1.39,2.08l-27.29,17.86-67.66-27.83c-1.57,1.47,8.33,7.26,9.47,8.02,14.48,9.65,30.15,17.58,44.48,27.48l-23.48,17.18-59.46-38.68c-.44,1.88,1.04,2.38,1.99,3.5,12.99,15.49,31.84,28.4,45.96,43.03.47,1.94-.54,1.23-1.24,1.73-7.01,5.02-14.36,9.64-21.42,14.61l-77.27-66.87c-1.67,18.28,13.73,39.49,30.97,45.01l-16,6.47-1.01,1.99c.02,1.89,20.47,26.33,23.51,29.54,2.68,2.84,7.35,8.34,11.07,8.93,9.04,1.44,21.47-3.86,23.43,10.05-4.64-1.13-10.75-4.12-14.98-.48-.5,2.28,4.19,3.02,5.46,4.51,2.56,3,2.16,9.33-.97,11.95-3.77-4.65-9.11-11.27-15.96-9.97-4.38.83-10.62,10.56-7.53,14.98-10.07-1.09-8.21-10.93-5-17.98l-14.98,4.99c-1.36-10.01,4.4-12.39,12.51-14.99,1.07-.34,1.81.74,1.47-1.49l-31.62-31.44c-5.91,2.32-6.78,8.86-8.85,13.92-4.6-6.89-6.39-15.98-13.49-20.99-.18,1.54-.96,2.94-1.05,4.52-1.15,19.84,30.7,49.91,42.99,65.01.92,1.14,5.63,6.6,5.02,7.46l-29.42,19.01-21.54-39.98c-.41,16.88,6.34,32.81,7.82,49.29l-24.32,16.37-24.32-16.37c1.48-16.48,8.23-32.42,7.82-49.29l-21.54,39.98-29.42-19.01c-.61-.86,4.09-6.32,5.02-7.46,12.29-15.09,44.14-45.17,42.99-65.01-.09-1.57-.87-2.98-1.05-4.52-7.09,5.01-8.88,14.1-13.49,20.99-2.07-5.06-2.94-11.6-8.85-13.92l-31.62,31.44c-.34,2.23.4,1.15,1.47,1.49,8.11,2.6,13.87,4.98,12.51,14.99l-14.98-4.99c3.21,7.06,5.07,16.9-5,17.98,3.09-4.43-3.15-14.15-7.53-14.98-6.85-1.3-12.19,5.33-15.96,9.97-3.13-2.62-3.53-8.95-.97-11.95,1.27-1.49,5.96-2.24,5.46-4.51-4.23-3.64-10.34-.65-14.98.48,1.96-13.91,14.39-8.62,23.43-10.05,3.72-.59,8.39-6.09,11.07-8.93,4.36-4.61,20.39-22.86,22.56-27.44.74-1.56,1.76-2.64-.06-4.09l-16-6.47c17.24-5.52,32.64-26.73,30.97-45.01l-77.27,66.87c-7.06-4.97-14.4-9.59-21.42-14.61-.69-.5-1.71.21-1.24-1.73,14.12-14.63,32.97-27.54,45.96-43.03.94-1.12,2.42-1.63,1.99-3.5l-59.46,38.68-23.48-17.18c14.33-9.9,30-17.83,44.48-27.48,1.14-.76,11.04-6.55,9.47-8.02l-67.66,27.83-27.29-17.86c-.41-2.54.22-1.55,1.39-2.08,25.35-11.42,57.34-16.91,81.59-31.38,1.09-.65,2.75-1.01,2.98-2.51l-110.95,18.99v-39c35.01-4.33,71.06-6.88,104.97-16.5l-104.97,1.5v-37l48.52,1.04,40.45-2.54c.13-4.53-81.34-15.77-88.97-16.5v-39Z"/><path d="M389.15,167.5c-1.28,8.18-9.66,16.81-18.43,15.45s-4.01-6.92-3.53-11.41c1.36-12.65-1.07-27.63-.04-40.54l-3.88.13c-2.29,31.19-25.88,39.09-53.63,36.91-3.57-.28-12.5-1.9-15.39-3.6-6.97-4.12-3.15-12.88-3.03-18.89l.95-46.54c-5.35,1.69-16.99,8.61-17.02-1.49-.04-13,14.5-14.73,24.54-15.5,28.75-2.2,54.35,2.48,62.04,34.04l5.43-.05c.62-4.81-1.91-13.72,2.62-16.88,3.53-2.47,19.37-3.66,19.37.38v16.5h7c1.24-6.98.09-24.01,4.43-29.06,3.59-4.18,17.18-6.13,20.01-1.89,3.31,4.95-.11,22.54-.45,28.96,6.45-7.15,10.2-16.53,17.52-22.97,6.77-5.96,23.12-13.59,21.48,1.49-1.22,11.29-22.86,19.87-22.82,24.78.02,2.06,5.3,10.97,6.77,13.23,6.04,9.25,14.58,18.1,23.7,24.29,2.13,1.45,8.38,3.01,8.35,5.65-9.21,18.37-35.83,6.82-43.83-7.16l-11.17-21.31c-2.86,10.04-.6,26-9.51,32.99-5.05,3.96-13.63,5.59-14.49-2.48-.67-6.28-1.27-18.77-1.05-25.07.08-2.3.5-4.25,1.05-6.44h-6.99c-1.24,11.14,1.67,25.81,0,36.49ZM315.19,157.99c36.56,4.17,30.22-46.15,7.69-58.19-1.48-.79-6.89-3.75-6.7-.33.22,13.35-.25,26.72-.04,40.07.1,6.33,2.59,11.76-.95,18.45Z"/><polygon points="444.13 585 444.13 559 455.12 559 455.12 605 444.56 604.07 425.14 579 425.14 605 414.14 605 414.14 559 424.71 559.93 444.13 585"/><path d="M541.59,559c17.03,1.99,21.37,21.9,6.47,29.53l10.02,16.46-12.79-.2c-1.48-1.87-7.47-13.04-8.4-13.58-1.54-.9-5.73.17-7.8-.21v14h-11v-46c7.47.63,16.18-.85,23.49,0ZM529.09,581.01c23.24,3.46,21.92-14.81,0-12.01v12.01Z"/><path d="M286.7,559c16.5,2.04,20.47,21.38,6.63,29.13l-.17,1.32,10.03,15.54-13-.48c-5.59-5.28-6.35-15.88-15.99-13.51v14h-11v-46c7.43.66,16.24-.9,23.49,0ZM274.2,581.01c21.89,3.25,21.79-15.07,0-12.01v12.01Z"/><path d="M480.86,559.24c38.8-6.18,39.02,46.83,5.76,46.83-29.5,0-32.24-42.62-5.76-46.83ZM482.82,569.22c-13.06,3.01-11.28,27.41,4.53,26.55,17.79-.96,15.07-31.08-4.53-26.55Z"/><path d="M257.2,604.99l-11.01-.48-3.87-8.9-17.46-.48-4.59,9.41-11.03.45c2.63-5.65,16.58-43.94,18.95-45.54,1.49-1.01,9.2-.9,10.57.51l18.46,45.03ZM238.22,584.99c-2.25-3.43-2.37-8.68-5.99-10.99l-4.01,10.99h10Z"/><path d="M389.15,604.99l-11.01-.47-3.87-8.9-17.44-.46-4.82,9.67-10.83.16,18.97-45.51,10.52.51,18.48,45ZM369.16,584.99c.78-.75-3.72-11.98-4.98-10.99l-4.01,10.99h8.99Z"/><path d="M595.81,559.24c7.86-1.33,16.03.13,22.24,5.32l-5.56,8.42c-2.75-2.22-14.52-7.62-16.34-2.37-2.02,5.85,11.7,6.88,15.81,8.99,6.29,3.22,7.8,6.9,7.09,13.9-1.63,16.28-27.21,14.53-35.9,4.87l5.62-7.26c2.62-.65,9.09,6.83,16.33,4.45,2.76-.91,4.46-4,1.96-6.06-2.16-1.78-12.14-3.35-15.7-5.29-10.77-5.85-7.92-22.87,4.44-24.96Z"/><path d="M135.57,581.69c-3.17-3.48-3.21-12.73-.76-16.65,5.76-9.23,24.12-7.32,31.43-.48l-5.56,8.42c-3.1-2.95-16.1-7.54-17.38-1.38s22.12,4.08,23.86,16.99c2.18,16.27-13.86,19.61-26.45,15.46-8.88-2.92-13.09-6.24-3.74-12.95,2.68-.68,11.27,8.31,17.7,3.81,7.98-5.58-10.12-8.45-13.12-9.71-1.31-.55-5.17-2.63-5.98-3.51Z"/><path d="M195.73,559c8.52,1.05,15.18,6.52,15.56,15.49.66,15.59-13.54,18.08-26.06,17.51v13.01s-9.99,0-9.99,0v-46c6.5.57,14.16-.78,20.49,0ZM185.23,582.01c19.98,2.6,20.13-15.38,0-13.01v13.01Z"/><polygon points="344.17 559 344.17 569 330.18 569 330.18 605 319.18 605 319.18 569 306.18 569.01 306.19 559 344.17 559"/><path d="M371.9,62.24c24.26-3.93,24.67,33.52.86,30.68-16.8-2-17.07-28.05-.86-30.68Z"/><path d="M401.65,633c5.74,1.23,7.64,10.91,2.51,14.5,7.82,2.34,4.43,16.5-1.52,16.5h-21.49v-31c5.94.86,15.01-1.17,20.49,0ZM399.14,643.98l-.44-3.04-1.21-.79-8.34-.16v5.01s10-1.02,10-1.02ZM389.15,658.01c15.39.87,16.09-7.52,0-6.01v6.01Z"/><path d="M367.16,650v-17h8v31c-2.35-.28-5.98.72-7.99-.5-3.35-2.04-8.83-13.83-13-16.5v17h-8v-31c11.48-2.76,13.59,11.1,20.99,17Z"/><path d="M245.21,633l7.79.22,12.2,15.78v-16h8v31c-10.93,2.2-13.85-12.36-20.99-18v18h-7v-31Z"/><path d="M505.1,646c1.04,12.07.52,19.06-13.49,19.08-30.72.04-14.83-49.43,12.49-28.54l-4.7,5.36c-2.87.72-6.25-5.64-12.81-.91s-3.52,16.48,5.1,16.95c3.76.2,6.55-.87,5.43-4.93h-6.01s0-7,0-7h13.99Z"/><path d="M333.68,633c6.47,1.29,8.9,10.44,5.92,15.93-.9,1.66-4.1,3.46-4.31,4.72-.3,1.76,7.12,9.27,5.89,10.35-2.56-.34-6.83.8-8.99-.5-3.29-1.98-3.43-10.99-10-8.5v9.01s-7.99,0-7.99,0v-31c5.75.78,14.13-1.07,19.49,0ZM322.18,648c4.13.16,8.77.56,10.55-3.91-.12-5.89-6.34-3.83-10.55-4.1v8.01Z"/><path d="M463.62,633c6.48,1.15,7.73,9.62,6.05,15.05-.75,2.42-4.69,4.54-4.43,6.26l5.87,9.68c-12.82,3.77-9.93-9.8-19.99-9v9.01s-7,0-7,0v-31c5.89.73,13.92-.99,19.49,0ZM451.12,648c14.52,1.56,15.94-10.54,0-8.01v8.01Z"/><polygon points="438.13 633 438.13 640 421.14 640 421.14 645 436.13 645 436.13 652 421.14 652 421.14 657 438.13 657 438.13 664 414.14 664 414.14 633 438.13 633"/><path d="M287.2,633v18.5c0,7.98,12.99,7.98,12.99,0v-18.5h7v23.5c0,.64-3.06,5.24-4.02,5.98-4.5,3.45-14.45,3.45-18.95,0-.96-.74-4.02-5.34-4.02-5.98v-23.5h7Z"/><rect x="565.08" y="559" width="11" height="46"/><rect x="285.19" y="624.99" width="7.01" height="6.01"/><rect x="295.19" y="624.99" width="7.01" height="6.01"/><path class="cls-1" d="M315.19,157.99c3.54-6.7,1.06-12.13.95-18.45-.22-13.35.25-26.72.04-40.07-.18-3.41,5.22-.46,6.7.33,22.53,12.05,28.87,62.36-7.69,58.19Z"/><path class="cls-1" d="M529.09,581.01v-12.01c21.92-2.8,23.24,15.47,0,12.01Z"/><path class="cls-1" d="M274.2,581.01v-12.01c21.79-3.06,21.89,15.26,0,12.01Z"/><path class="cls-1" d="M482.82,569.22c19.6-4.52,22.32,25.59,4.53,26.55-15.81.85-17.59-23.54-4.53-26.55Z"/><path class="cls-1" d="M238.22,584.99h-10s4.01-10.99,4.01-10.99c3.62,2.31,3.74,7.56,5.99,10.99Z"/><path class="cls-1" d="M369.16,584.99h-8.99s4.01-10.99,4.01-10.99c1.26-.99,5.77,10.25,4.98,10.99Z"/><path class="cls-1" d="M185.23,582.01v-13.01c20.13-2.37,19.98,15.61,0,13.01Z"/><path class="cls-1" d="M389.15,658.01v-6.01c16.09-1.5,15.39,6.88,0,6.01Z"/><polygon class="cls-1" points="399.14 643.98 389.15 645 389.15 640 397.49 640.16 398.7 640.94 399.14 643.98"/><path class="cls-1" d="M322.18,648v-8.01c4.21.26,10.43-1.8,10.55,4.1-1.78,4.47-6.42,4.07-10.55,3.91Z"/><path class="cls-1" d="M451.12,648v-8.01c15.94-2.53,14.52,9.57,0,8.01Z"/></svg>